<svg width="146" height="40" viewBox="0 0 146 40" fill="none" xmlns="http://www.w3.org/2000/svg">
    <rect width="146" height="40" rx="4" fill="#D8D8D8"/>
    <mask id="mask0_6958_7086" style="mask-type:luminance" maskUnits="userSpaceOnUse" x="0" y="0" width="146" height="40">
    <rect width="146" height="40" rx="4" fill="white"/>
    </mask>
    <g mask="url(#mask0_6958_7086)">
    <rect width="146" height="40" fill="white"/>
    </g>
    <g clip-path="url(#clip0_6958_7086)">
    <path fill-rule="evenodd" clip-rule="evenodd" d="M94.8572 30.536C95.6462 29.825 96.0392 28.904 96.0392 27.772C96.0392 26.852 95.7702 26.081 95.2312 25.465C94.6902 24.847 93.8492 24.308 92.7042 23.847C91.7682 23.478 91.1232 23.136 90.7682 22.82C90.3602 22.478 90.1572 22.043 90.1572 21.517C90.1572 21.042 90.3352 20.641 90.6902 20.312C91.1102 19.944 91.6962 19.759 92.4462 19.759C93.3952 19.759 94.2432 19.963 94.9932 20.371L95.5262 18.633C94.7232 18.212 93.7172 18.001 92.5062 18.001C91.1482 18.001 90.0622 18.35 89.2482 19.049C88.4312 19.747 88.0232 20.644 88.0232 21.738C88.0232 23.412 89.1872 24.685 91.5172 25.554C92.3732 25.871 92.9862 26.214 93.3532 26.583C93.7222 26.952 93.9062 27.407 93.9062 27.947C93.9062 28.553 93.6832 29.039 93.2362 29.401C92.7872 29.763 92.1622 29.945 91.3592 29.945C90.2402 29.945 89.2132 29.661 88.2772 29.095L87.7832 30.872C88.6522 31.425 89.8002 31.701 91.2322 31.701C92.7832 31.701 93.9902 31.313 94.8572 30.536ZM61.6452 31.504H59.3742L58.1302 27.595H53.8062L52.6212 31.504H50.4102L54.6942 18.196H57.3402L61.6452 31.504ZM57.7552 25.955L56.6302 22.48C56.5112 22.125 56.2882 21.289 55.9592 19.973H55.9192C55.7882 20.539 55.5772 21.375 55.2872 22.48L54.1822 25.955H57.7552ZM71.3392 30.457C72.2212 29.51 72.6622 28.22 72.6622 26.588C72.6622 25.127 72.2842 23.949 71.5262 23.053C70.7702 22.158 69.8252 21.711 68.6932 21.711C67.2452 21.711 66.1662 22.283 65.4552 23.429H65.4152L65.2962 21.908H63.4212C63.4732 22.988 63.5002 24.041 63.5002 25.067V35.414H65.6322V30.359H65.6722C66.2252 31.267 67.1332 31.721 68.3972 31.721C69.5682 31.721 70.5492 31.3 71.3392 30.457ZM70.4902 26.666C70.4902 25.732 70.2802 24.962 69.8582 24.356C69.3972 23.724 68.7782 23.408 68.0022 23.408C67.4762 23.408 66.9982 23.584 66.5712 23.931C66.1432 24.281 65.8632 24.738 65.7322 25.304C65.6662 25.568 65.6332 25.784 65.6332 25.954V27.554C65.6332 28.252 65.8472 28.841 66.2752 29.322C66.7032 29.803 67.2592 30.043 67.9432 30.043C68.7462 30.043 69.3712 29.733 69.8182 29.115C70.2662 28.496 70.4902 27.68 70.4902 26.666ZM82.3752 30.457C83.2582 29.51 83.6992 28.22 83.6992 26.588C83.6992 25.127 83.3202 23.949 82.5652 23.053C81.8072 22.158 80.8622 21.711 79.7312 21.711C78.2822 21.711 77.2032 22.283 76.4932 23.429H76.4532L76.3342 21.908H74.4592C74.5112 22.988 74.5382 24.041 74.5382 25.067V35.414H76.6702V30.359H76.7102C77.2622 31.267 78.1702 31.721 79.4342 31.721C80.6052 31.721 81.5862 31.3 82.3752 30.457ZM81.5272 26.666C81.5272 25.732 81.3162 24.962 80.8942 24.356C80.4332 23.724 79.8162 23.408 79.0392 23.408C78.5122 23.408 78.0352 23.584 77.6072 23.931C77.1792 24.281 76.9002 24.738 76.7692 25.304C76.7042 25.568 76.6702 25.784 76.6702 25.954V27.554C76.6702 28.252 76.8842 28.841 77.3102 29.322C77.7382 29.802 78.2942 30.043 78.9802 30.043C79.7832 30.043 80.4082 29.733 80.8552 29.115C81.3032 28.496 81.5272 27.68 81.5272 26.666ZM103.088 23.508H100.738V28.167C100.738 29.352 101.152 29.944 101.982 29.944C102.363 29.944 102.679 29.911 102.929 29.845L102.988 31.464C102.568 31.621 102.015 31.7 101.33 31.7C100.488 31.7 99.8302 31.443 99.3552 30.93C98.8822 30.416 98.6442 29.554 98.6442 28.343V23.506H97.2442V21.906H98.6442V20.149L100.738 19.517V21.906H103.088V23.508ZM112.427 30.26C113.269 29.313 113.691 28.102 113.691 26.627C113.691 25.192 113.283 24.021 112.465 23.114C111.61 22.179 110.477 21.712 109.069 21.712C107.608 21.712 106.446 22.186 105.585 23.134C104.722 24.081 104.292 25.299 104.292 26.786C104.292 28.207 104.71 29.386 105.546 30.32C106.382 31.254 107.503 31.721 108.911 31.721C110.372 31.721 111.544 31.235 112.427 30.26ZM111.479 26.696C111.479 25.811 111.29 25.052 110.907 24.419C110.46 23.653 109.821 23.271 108.993 23.271C108.136 23.271 107.485 23.654 107.038 24.419C106.655 25.053 106.466 25.824 106.466 26.736C106.466 27.621 106.655 28.38 107.038 29.012C107.499 29.778 108.143 30.16 108.974 30.16C109.788 30.16 110.427 29.77 110.888 28.992C111.281 28.347 111.479 27.58 111.479 26.696ZM119.949 23.724C120.185 23.724 120.41 23.744 120.621 23.783V21.75C120.463 21.725 120.285 21.711 120.088 21.711C119.535 21.711 119.022 21.882 118.547 22.225C118.061 22.606 117.706 23.114 117.481 23.745H117.422L117.344 21.909H115.487C115.54 22.817 115.567 23.824 115.567 24.93L115.547 31.504H117.678V26.469C117.678 25.706 117.856 25.074 118.211 24.574C118.619 24.007 119.199 23.724 119.949 23.724ZM130.156 26.252C130.156 26.634 130.131 26.956 130.078 27.219H123.682C123.707 28.167 124.016 28.892 124.61 29.392C125.149 29.839 125.846 30.063 126.702 30.063C127.649 30.063 128.513 29.912 129.29 29.609L129.624 31.089C128.716 31.485 127.644 31.682 126.407 31.682C124.919 31.682 123.751 31.244 122.901 30.369C122.053 29.494 121.628 28.319 121.628 26.845C121.628 25.398 122.023 24.193 122.814 23.232C123.642 22.206 124.761 21.693 126.169 21.693C127.552 21.693 128.599 22.206 129.31 23.232C129.873 24.047 130.156 25.055 130.156 26.252ZM127.709 24.06C127.998 24.521 128.137 25.067 128.123 25.699V25.698H123.682C123.747 25.054 123.958 24.501 124.313 24.04C124.746 23.46 125.313 23.171 126.01 23.171C126.773 23.171 127.34 23.467 127.709 24.06Z" fill="#4A4A4A"/>
    <path fill-rule="evenodd" clip-rule="evenodd" d="M79.0878 13.4329H78.0408V6.55591H79.0878V13.4329ZM55.9918 12.6669C56.6968 12.0719 57.0498 11.1859 57.0498 10.0089C57.0498 8.96091 56.7228 8.15591 56.0708 7.59291C55.4888 7.09491 54.6258 6.84591 53.4808 6.84591C52.8328 6.84591 52.2328 6.89191 51.6758 6.98191V13.4129C52.1028 13.4649 52.6128 13.4909 53.2088 13.4909C54.4108 13.4909 55.3388 13.2159 55.9918 12.6669ZM55.3388 8.28191C55.7428 8.68991 55.9448 9.27491 55.9448 10.0379C55.9448 10.8919 55.7248 11.5419 55.2888 11.9879C54.8528 12.4339 54.2338 12.6569 53.4318 12.6569C53.0888 12.6569 52.8528 12.6479 52.7238 12.6279V7.73891C52.9568 7.69291 53.2378 7.67091 53.5678 7.67091C54.3448 7.67091 54.9348 7.87491 55.3388 8.28191ZM62.9088 11.0369C62.9088 11.7619 62.7018 12.3559 62.2878 12.8219C61.8538 13.3009 61.2788 13.5399 60.5608 13.5399C59.8688 13.5399 59.3178 13.3109 58.9068 12.8509C58.4968 12.3919 58.2918 11.8129 58.2918 11.1149C58.2918 10.3849 58.5028 9.78591 58.9268 9.32091C59.3508 8.85591 59.9208 8.62291 60.6388 8.62291C61.3308 8.62291 61.8868 8.85191 62.3078 9.31091C62.7078 9.75691 62.9088 10.3329 62.9088 11.0369ZM61.5408 9.95191C61.7278 10.2629 61.8218 10.6359 61.8218 11.0709C61.8218 11.5059 61.7248 11.8819 61.5308 12.1989C61.3048 12.5819 60.9908 12.7729 60.5908 12.7729C60.1828 12.7729 59.8668 12.5849 59.6398 12.2089C59.4528 11.8979 59.3588 11.5249 59.3588 11.0899C59.3588 10.6419 59.4518 10.2629 59.6398 9.95191C59.8598 9.57591 60.1798 9.38791 60.6008 9.38791C61.0078 9.38791 61.3208 9.57591 61.5408 9.95191ZM70.7648 8.71891L70.7645 8.71991H69.7358L69.1638 10.9219C69.0218 11.4719 68.9148 11.9889 68.8438 12.4739H68.8148C68.7178 11.9759 68.5918 11.4589 68.4368 10.9219L67.7958 8.71991H66.9418L66.2728 10.9699C66.0908 11.5769 65.9618 12.0789 65.8838 12.4729H65.8648C65.7798 11.9949 65.6738 11.4899 65.5448 10.9599L65.0118 8.71891H63.9348L65.3218 13.4329H66.2928L66.9418 11.3859C67.1038 10.8879 67.2298 10.3809 67.3208 9.86291H67.3398C67.4378 10.3669 67.5638 10.8749 67.7188 11.3859L68.3298 13.4329H69.2898L70.7645 8.71991H70.7648V8.71891ZM75.1498 13.4329H76.1978V10.6089C76.1978 9.91691 76.0168 9.39591 75.6548 9.04691C75.3638 8.76191 74.9978 8.61991 74.5578 8.61991C74.2098 8.61991 73.8918 8.70891 73.6078 8.88491C73.3688 9.03591 73.1868 9.22491 73.0648 9.45391H73.0358L72.9868 8.71691H72.0658C72.0908 9.20291 72.1038 9.65191 72.1038 10.0659V13.4319H73.1518V10.6359C73.1518 10.3269 73.2498 10.0569 73.4428 9.82791C73.6378 9.59891 73.8888 9.48491 74.1998 9.48491C74.8338 9.48491 75.1498 9.90091 75.1498 10.7329V13.4329ZM84.6368 12.8219C85.0508 12.3559 85.2578 11.7619 85.2578 11.0369C85.2578 10.3329 85.0568 9.75691 84.6568 9.31091C84.2348 8.85191 83.6798 8.62291 82.9868 8.62291C82.2698 8.62291 81.6998 8.85591 81.2758 9.32091C80.8518 9.78591 80.6408 10.3849 80.6408 11.1149C80.6408 11.8129 80.8458 12.3919 81.2558 12.8509C81.6658 13.3109 82.2168 13.5399 82.9098 13.5399C83.6268 13.5399 84.2028 13.3009 84.6368 12.8219ZM84.1698 11.0709C84.1698 10.6359 84.0758 10.2629 83.8888 9.95191C83.6698 9.57591 83.3558 9.38791 82.9498 9.38791C82.5278 9.38791 82.2078 9.57591 81.9888 9.95191C81.8008 10.2629 81.7078 10.6419 81.7078 11.0899C81.7078 11.5249 81.8018 11.8979 81.9888 12.2089C82.2158 12.5849 82.5318 12.7729 82.9398 12.7729C83.3398 12.7729 83.6528 12.5819 83.8788 12.1989C84.0738 11.8819 84.1698 11.5059 84.1698 11.0709ZM89.3888 13.4329H90.3298C90.2848 13.1549 90.2618 12.7799 90.2618 12.3089V10.5729C90.2618 9.27291 89.6438 8.62291 88.4118 8.62291C87.7738 8.62291 87.2328 8.75891 86.7948 9.02991L87.0078 9.71791C87.3618 9.48591 87.7718 9.36891 88.2368 9.36891C88.8898 9.36891 89.2158 9.67891 89.2158 10.2999V10.3879C88.3428 10.3809 87.6648 10.5299 87.1828 10.8339C86.6998 11.1379 86.4598 11.5769 86.4598 12.1529C86.4598 12.5339 86.5828 12.8549 86.8288 13.1129C87.0998 13.3969 87.4598 13.5399 87.9048 13.5399C88.5008 13.5399 88.9598 13.3229 89.2818 12.8899H89.3108L89.3888 13.4329ZM89.2418 11.8129V11.0859C88.0858 11.0659 87.5078 11.3829 87.5078 12.0359C87.5078 12.2819 87.5738 12.4659 87.7088 12.5889C87.8438 12.7119 88.0158 12.7729 88.2208 12.7729C88.4508 12.7729 88.6658 12.6999 88.8618 12.5549C89.0588 12.4089 89.1798 12.2239 89.2248 11.9969C89.2358 11.9459 89.2418 11.8839 89.2418 11.8129ZM95.3548 13.4329H96.2848C96.2598 13.0449 96.2478 12.6219 96.2478 12.1629V6.55591H95.1988V9.26191H95.1788C94.9268 8.83491 94.4838 8.62191 93.8508 8.62191C93.2748 8.62191 92.7908 8.84191 92.3958 9.28191C91.9878 9.75391 91.7848 10.3719 91.7848 11.1349C91.7848 11.8459 91.9718 12.4249 92.3468 12.8709C92.7218 13.3169 93.1948 13.5399 93.7628 13.5399C94.4738 13.5399 94.9798 13.2519 95.2768 12.6759H95.3058L95.3548 13.4329ZM95.1988 11.4449V10.6589C95.1988 10.5229 95.1888 10.4129 95.1698 10.3289C95.1108 10.0769 94.9838 9.86491 94.7908 9.69391C94.5958 9.52291 94.3608 9.43691 94.0898 9.43691C93.6988 9.43691 93.3928 9.59191 93.1678 9.90291C92.9448 10.2139 92.8318 10.6109 92.8318 11.0959C92.8318 11.5619 92.9388 11.9399 93.1538 12.2309C93.3808 12.5409 93.6868 12.6959 94.0698 12.6959C94.4138 12.6959 94.6888 12.5669 94.8978 12.3079C95.0998 12.0689 95.1988 11.7809 95.1988 11.4449ZM104.627 12.8219C105.041 12.3559 105.248 11.7619 105.248 11.0369C105.248 10.3329 105.047 9.75691 104.647 9.31091C104.227 8.85191 103.67 8.62291 102.979 8.62291C102.26 8.62291 101.69 8.85591 101.266 9.32091C100.842 9.78591 100.631 10.3849 100.631 11.1149C100.631 11.8129 100.836 12.3919 101.246 12.8509C101.658 13.3109 102.209 13.5399 102.9 13.5399C103.619 13.5399 104.193 13.3009 104.627 12.8219ZM104.162 11.0709C104.162 10.6359 104.068 10.2629 103.881 9.95191C103.66 9.57591 103.348 9.38791 102.94 9.38791C102.52 9.38791 102.2 9.57591 101.979 9.95191C101.791 10.2629 101.698 10.6419 101.698 11.0899C101.698 11.5249 101.792 11.8979 101.979 12.2089C102.206 12.5849 102.522 12.7729 102.93 12.7729C103.33 12.7729 103.645 12.5819 103.871 12.1989C104.064 11.8819 104.162 11.5059 104.162 11.0709ZM109.836 13.4329H110.883V10.6089C110.883 9.91691 110.703 9.39591 110.34 9.04691C110.049 8.76191 109.683 8.61991 109.244 8.61991C108.895 8.61991 108.578 8.70891 108.293 8.88491C108.055 9.03591 107.873 9.22491 107.75 9.45391H107.721L107.672 8.71691H106.752C106.777 9.20291 106.789 9.65191 106.789 10.0659V13.4319H107.838V10.6359C107.838 10.3269 107.935 10.0569 108.129 9.82791C108.323 9.59891 108.574 9.48491 108.885 9.48491C109.52 9.48491 109.836 9.90091 109.836 10.7329V13.4329ZM117.935 9.50391H116.782V11.7939C116.782 12.3759 116.987 12.6669 117.393 12.6669C117.581 12.6669 117.737 12.6509 117.86 12.6179L117.887 13.4129C117.68 13.4909 117.408 13.5299 117.073 13.5299C116.659 13.5299 116.337 13.4039 116.104 13.1519C115.87 12.8999 115.754 12.4759 115.754 11.8809V9.50391H115.065V8.71891H115.754V7.85491L116.781 7.54491V8.71791H117.935V9.50391ZM122.435 13.4329H123.484V10.6299C123.484 9.93191 123.306 9.40391 122.951 9.04891C122.666 8.76391 122.307 8.62191 121.873 8.62191C121.26 8.62191 120.787 8.87991 120.457 9.39691H120.437V6.55591H119.39V13.4319H120.437V10.5969C120.437 10.4489 120.455 10.3229 120.486 10.2199C120.668 9.72991 121 9.48491 121.486 9.48491C122.119 9.48491 122.435 9.90791 122.435 10.7529V13.4329ZM129.207 10.8529C129.207 11.0409 129.193 11.1989 129.168 11.3279H126.025C126.039 11.7939 126.189 12.1489 126.48 12.3949C126.746 12.6149 127.089 12.7249 127.509 12.7249C127.974 12.7249 128.398 12.6509 128.78 12.5019L128.944 13.2299C128.497 13.4239 127.971 13.5209 127.362 13.5209C126.632 13.5209 126.057 13.3059 125.641 12.8759C125.223 12.4459 125.016 11.8689 125.016 11.1449C125.016 10.4339 125.209 9.84191 125.598 9.36991C126.004 8.86591 126.553 8.61391 127.246 8.61391C127.924 8.61391 128.439 8.86591 128.787 9.36991C129.068 9.76991 129.207 10.2649 129.207 10.8529ZM128.004 9.77691C128.146 10.0029 128.215 10.2709 128.207 10.5819H126.025C126.059 10.2649 126.162 9.99391 126.336 9.76691C126.549 9.48191 126.828 9.33991 127.17 9.33991C127.545 9.33991 127.822 9.48591 128.004 9.77691Z" fill="#4A4A4A"/>
    <path d="M38.1281 19.784C38.0991 16.561 40.7671 14.993 40.8891 14.92C39.3781 12.717 37.0361 12.416 36.2131 12.392C34.2461 12.185 32.3381 13.569 31.3361 13.569C30.3141 13.569 28.7711 12.412 27.1081 12.446C24.9681 12.479 22.9661 13.718 21.8681 15.642C19.6021 19.565 21.2921 25.33 23.4631 28.501C24.5491 30.054 25.8181 31.788 27.4791 31.727C29.1041 31.66 29.7111 30.691 31.6721 30.691C33.6151 30.691 34.1851 31.727 35.8791 31.688C37.6231 31.66 38.7211 30.128 39.7691 28.561C41.0241 26.781 41.5281 25.028 41.5481 24.938C41.5071 24.924 38.1611 23.647 38.1281 19.784Z" fill="#4A4A4A"/>
    <path d="M34.928 10.306C35.802 9.21304 36.4 7.72604 36.234 6.21704C34.969 6.27304 33.387 7.09204 32.476 8.16104C31.67 9.10304 30.95 10.647 31.136 12.099C32.557 12.205 34.016 11.382 34.928 10.306Z" fill="#4A4A4A"/>
    </g>
    <defs>
    <clipPath id="clip0_6958_7086">
    <rect width="111" height="30" fill="white" transform="translate(20 6)"/>
    </clipPath>
    </defs>
</svg>
