<svg width="147" height="40" viewBox="0 0 147 40" fill="none" xmlns="http://www.w3.org/2000/svg">
    <rect width="147" height="40" rx="4" fill="#D8D8D8"/>
    <mask id="mask0_6958_7046" style="mask-type:luminance" maskUnits="userSpaceOnUse" x="0" y="0" width="147" height="40">
    <rect width="147" height="40" rx="4" fill="white"/>
    </mask>
    <g mask="url(#mask0_6958_7046)">
    <rect width="147" height="40" fill="white"/>
    </g>
    <g clip-path="url(#clip0_6958_7046)">
    <path fill-rule="evenodd" clip-rule="evenodd" d="M113.936 30.0001H115.801V17.4991H113.936V30.0001ZM130.743 22.0021L128.604 27.4221H128.54L126.32 22.0021H124.31L127.64 29.5771L125.741 33.7911H127.687L132.818 22.0021H130.743ZM120.16 28.5801C119.55 28.5801 118.697 28.2741 118.697 27.5181C118.697 26.5541 119.759 26.1831 120.676 26.1831C121.495 26.1831 121.882 26.3611 122.38 26.6011C122.235 27.7601 121.238 28.5801 120.16 28.5801ZM120.386 21.7281C119.035 21.7281 117.636 22.3241 117.057 23.6421L118.713 24.3341C119.067 23.6421 119.726 23.4171 120.418 23.4171C121.383 23.4171 122.364 23.9961 122.38 25.0251V25.1541C122.042 24.9611 121.318 24.6721 120.434 24.6721C118.648 24.6721 116.831 25.6531 116.831 27.4861C116.831 29.1591 118.295 30.2371 119.935 30.2371C121.189 30.2371 121.882 29.6741 122.315 29.0141H122.38V29.9791H124.182V25.1861C124.182 22.9671 122.524 21.7281 120.386 21.7281ZM108.854 23.5241H106.2V19.2391H108.854C110.249 19.2391 111.041 20.3931 111.041 21.3811C111.041 22.3501 110.249 23.5241 108.854 23.5241ZM108.806 17.4981H104.335V30.0001H106.2V25.2641H108.806C110.874 25.2641 112.907 23.7661 112.907 21.3811C112.907 18.9961 110.874 17.4981 108.806 17.4981ZM84.425 28.5821C83.136 28.5821 82.057 27.5031 82.057 26.0211C82.057 24.5221 83.136 23.4271 84.425 23.4271C85.697 23.4271 86.696 24.5221 86.696 26.0211C86.696 27.5031 85.697 28.5821 84.425 28.5821ZM86.567 22.7021H86.503C86.084 22.2031 85.278 21.7511 84.264 21.7511C82.137 21.7511 80.187 23.6201 80.187 26.0211C80.187 28.4051 82.137 30.2581 84.264 30.2581C85.278 30.2581 86.084 29.8071 86.503 29.2911H86.567V29.9031C86.567 31.5311 85.697 32.4001 84.296 32.4001C83.152 32.4001 82.443 31.5791 82.153 30.8861L80.526 31.5631C80.993 32.6901 82.233 34.0761 84.296 34.0761C86.487 34.0761 88.34 32.7871 88.34 29.6451V22.0091H86.567V22.7021ZM89.629 30.0001H91.497V17.4991H89.629V30.0001ZM94.252 25.8761C94.204 24.2321 95.525 23.3951 96.475 23.3951C97.217 23.3951 97.845 23.7661 98.055 24.2971L94.252 25.8761ZM100.052 24.4581C99.697 23.5081 98.618 21.7511 96.411 21.7511C94.22 21.7511 92.399 23.4751 92.399 26.0051C92.399 28.3891 94.204 30.2581 96.62 30.2581C98.569 30.2581 99.697 29.0661 100.165 28.3731L98.715 27.4061C98.231 28.1151 97.571 28.5821 96.62 28.5821C95.67 28.5821 94.993 28.1471 94.559 27.2931L100.245 24.9411L100.052 24.4581ZM54.744 23.0571V24.8611H59.061C58.933 25.8761 58.594 26.6171 58.079 27.1321C57.45 27.7611 56.467 28.4541 54.744 28.4541C52.085 28.4541 50.007 26.3111 50.007 23.6531C50.007 20.9951 52.085 18.8511 54.744 18.8511C56.178 18.8511 57.225 19.4151 57.998 20.1411L59.271 18.8681C58.191 17.8371 56.758 17.0471 54.744 17.0471C51.102 17.0471 48.041 20.0121 48.041 23.6531C48.041 27.2931 51.102 30.2581 54.744 30.2581C56.709 30.2581 58.191 29.6131 59.351 28.4051C60.543 27.2131 60.914 25.5371 60.914 24.1841C60.914 23.7661 60.882 23.3791 60.817 23.0571H54.744ZM65.822 28.5821C64.534 28.5821 63.422 27.5191 63.422 26.0051C63.422 24.4741 64.534 23.4271 65.822 23.4271C67.111 23.4271 68.223 24.4741 68.223 26.0051C68.223 27.5191 67.111 28.5821 65.822 28.5821ZM65.822 21.7511C63.47 21.7511 61.553 23.5401 61.553 26.0051C61.553 28.4541 63.47 30.2581 65.822 30.2581C68.175 30.2581 70.092 28.4541 70.092 26.0051C70.092 23.5401 68.175 21.7511 65.822 21.7511ZM75.136 28.5821C73.847 28.5821 72.735 27.5191 72.735 26.0051C72.735 24.4741 73.847 23.4271 75.136 23.4271C76.425 23.4271 77.536 24.4741 77.536 26.0051C77.536 27.5191 76.425 28.5821 75.136 28.5821ZM75.136 21.7511C72.784 21.7511 70.867 23.5401 70.867 26.0051C70.867 28.4541 72.784 30.2581 75.136 30.2581C77.488 30.2581 79.405 28.4541 79.405 26.0051C79.405 23.5401 77.488 21.7511 75.136 21.7511Z" fill="#4A4A4A"/>
    <path fill-rule="evenodd" clip-rule="evenodd" d="M53.6726 12.2462C54.1696 11.7482 54.4176 11.0812 54.4176 10.2432C54.4176 10.0972 54.4036 9.94721 54.3756 9.79021H51.4686V10.5112H53.6466C53.6026 11.0312 53.4346 11.4352 53.1446 11.7262C52.6966 12.1732 52.1386 12.3962 51.4686 12.3962C50.8366 12.3962 50.2906 12.1752 49.8296 11.7302C49.3686 11.2862 49.1386 10.7092 49.1386 10.0002C49.1386 9.29021 49.3686 8.71421 49.8296 8.26921C50.2906 7.82521 50.8366 7.60321 51.4686 7.60321C52.1666 7.60321 52.7136 7.84121 53.1106 8.31521L53.6386 7.78721C53.4036 7.50821 53.0906 7.28521 52.6996 7.11721C52.3096 6.95021 51.8976 6.86621 51.4686 6.86621C50.6026 6.86621 49.8656 7.16621 49.2606 7.76621C48.6536 8.36721 48.3516 9.11121 48.3516 10.0002C48.3516 10.8882 48.6536 11.6332 49.2606 12.2332C49.8656 12.8342 50.6026 13.1342 51.4686 13.1342C52.3726 13.1342 53.1076 12.8382 53.6726 12.2462ZM56.2949 7.73731H59.0269V7.00031H55.5239V13.0003H59.0269V12.2623H56.2949V10.3603H58.7579V9.63931H56.2949V7.73731ZM62.2779 13H61.5069V7.73701H59.8309V7.00001H63.9539V7.73701H62.2779V13ZM67.7082 13.0001H66.9372V7.00011H67.7082V13.0001ZM71.1275 13H70.3565V7.73701H68.6805V7.00001H72.8035V7.73701H71.1275V13ZM78.4084 13.1342C79.2854 13.1342 80.0184 12.8312 80.6084 12.2242C81.1974 11.6182 81.4924 10.8772 81.4924 10.0002C81.4924 9.12821 81.1964 8.38821 80.6044 7.77921C80.0114 7.17021 79.2804 6.86621 78.4084 6.86621C77.5314 6.86621 76.7984 7.16921 76.2094 7.77521C75.6194 8.38121 75.3254 9.12321 75.3254 10.0002C75.3254 10.8772 75.6194 11.6182 76.2094 12.2242C76.7984 12.8312 77.5314 13.1342 78.4084 13.1342ZM76.7784 11.7222C77.2224 12.1722 77.7654 12.3962 78.4084 12.3962C79.0504 12.3962 79.5944 12.1722 80.0384 11.7222C80.4824 11.2722 80.7054 10.6982 80.7054 10.0002C80.7054 9.30221 80.4824 8.72721 80.0384 8.27821C79.5944 7.82821 79.0504 7.60321 78.4084 7.60321C77.7654 7.60321 77.2224 7.82821 76.7784 8.27821C76.3354 8.72721 76.1124 9.30221 76.1124 10.0002C76.1124 10.6982 76.3354 11.2722 76.7784 11.7222ZM82.5743 7.00001V13H83.3453V9.26301L83.3113 8.10601H83.3453L86.3953 13H87.2003V7.00001H86.4283V10.511L86.4623 11.667H86.4283L83.5123 7.00001H82.5743Z" fill="#4A4A4A"/>
    <g clip-path="url(#clip1_6958_7046)">
    <path d="M32.9636 23.6679C35.8798 22.1068 38.0904 20.9172 38.2809 20.8247C38.8905 20.5087 39.52 19.6722 38.2809 19.0224C37.8809 18.8181 35.727 17.6655 32.9636 16.1792L29.1328 19.9513L32.9636 23.6678V23.6679Z" fill="#FFD900"/>
    <path d="M29.1334 19.9514L16.9355 31.9377C17.2219 31.9746 17.5451 31.9006 17.9262 31.6964C18.7263 31.2693 27.208 26.7532 32.9642 23.6689L29.1334 19.9514Z" fill="#F43249"/>
    <path d="M29.1328 19.9513L32.9636 16.1977C32.9636 16.1977 18.7836 8.65254 17.9256 8.20714C17.6024 8.02048 17.2401 7.96504 16.916 8.02048L29.1328 19.9513Z" fill="#00EE76"/>
    <path d="M29.1316 19.9513L16.9148 8.02051C16.419 8.13227 16 8.55937 16 9.43283V30.5252C16 31.3247 16.3242 31.9005 16.9338 31.956L29.1316 19.9513Z" fill="#00D3FF"/>
    </g>
    </g>
    <defs>
    <clipPath id="clip0_6958_7046">
    <rect width="117" height="29" fill="white" transform="translate(16 6)"/>
    </clipPath>
    <clipPath id="clip1_6958_7046">
    <rect width="23" height="24" fill="white" transform="translate(16 8)"/>
    </clipPath>
    </defs>
</svg>
    