<svg width="146" height="50" viewBox="0 0 146 50" fill="none" xmlns="http://www.w3.org/2000/svg">
<mask id="mask0_2848_21647" style="mask-type:luminance" maskUnits="userSpaceOnUse" x="0" y="0" width="146" height="50">
<rect width="146" height="50" rx="4" fill="white"/>
</mask>
<g mask="url(#mask0_2848_21647)">
<rect width="146" height="50" rx="12" fill="#090D20"/>
</g>
<g clip-path="url(#clip0_2848_21647)">
<path fill-rule="evenodd" clip-rule="evenodd" d="M94.8572 35.536C95.6462 34.825 96.0392 33.904 96.0392 32.772C96.0392 31.852 95.7702 31.081 95.2312 30.465C94.6902 29.847 93.8492 29.308 92.7042 28.847C91.7682 28.478 91.1232 28.136 90.7682 27.82C90.3602 27.478 90.1572 27.043 90.1572 26.517C90.1572 26.042 90.3352 25.641 90.6902 25.312C91.1102 24.944 91.6962 24.759 92.4462 24.759C93.3952 24.759 94.2432 24.963 94.9932 25.371L95.5262 23.633C94.7232 23.212 93.7172 23.001 92.5062 23.001C91.1482 23.001 90.0622 23.35 89.2482 24.049C88.4312 24.747 88.0232 25.644 88.0232 26.738C88.0232 28.412 89.1872 29.685 91.5172 30.554C92.3732 30.871 92.9862 31.214 93.3532 31.583C93.7222 31.952 93.9062 32.407 93.9062 32.947C93.9062 33.553 93.6832 34.039 93.2362 34.401C92.7872 34.763 92.1622 34.945 91.3592 34.945C90.2402 34.945 89.2132 34.661 88.2772 34.095L87.7832 35.872C88.6522 36.425 89.8002 36.701 91.2322 36.701C92.7832 36.701 93.9902 36.313 94.8572 35.536ZM61.6452 36.504H59.3742L58.1302 32.595H53.8062L52.6212 36.504H50.4102L54.6942 23.196H57.3402L61.6452 36.504ZM57.7552 30.955L56.6302 27.48C56.5112 27.125 56.2882 26.289 55.9592 24.973H55.9192C55.7882 25.539 55.5772 26.375 55.2872 27.48L54.1822 30.955H57.7552ZM71.3392 35.457C72.2212 34.51 72.6622 33.22 72.6622 31.588C72.6622 30.127 72.2842 28.949 71.5262 28.053C70.7702 27.158 69.8252 26.711 68.6932 26.711C67.2452 26.711 66.1662 27.283 65.4552 28.429H65.4152L65.2962 26.908H63.4212C63.4732 27.988 63.5002 29.041 63.5002 30.067V40.414H65.6322V35.359H65.6722C66.2252 36.267 67.1332 36.721 68.3972 36.721C69.5682 36.721 70.5492 36.3 71.3392 35.457ZM70.4902 31.666C70.4902 30.732 70.2802 29.962 69.8582 29.356C69.3972 28.724 68.7782 28.408 68.0022 28.408C67.4762 28.408 66.9982 28.584 66.5712 28.931C66.1432 29.281 65.8632 29.738 65.7322 30.304C65.6662 30.568 65.6332 30.784 65.6332 30.954V32.554C65.6332 33.252 65.8472 33.841 66.2752 34.322C66.7032 34.803 67.2592 35.043 67.9432 35.043C68.7462 35.043 69.3712 34.733 69.8182 34.115C70.2662 33.496 70.4902 32.68 70.4902 31.666ZM82.3752 35.457C83.2582 34.51 83.6992 33.22 83.6992 31.588C83.6992 30.127 83.3202 28.949 82.5652 28.053C81.8072 27.158 80.8622 26.711 79.7312 26.711C78.2822 26.711 77.2032 27.283 76.4932 28.429H76.4532L76.3342 26.908H74.4592C74.5112 27.988 74.5382 29.041 74.5382 30.067V40.414H76.6702V35.359H76.7102C77.2622 36.267 78.1702 36.721 79.4342 36.721C80.6052 36.721 81.5862 36.3 82.3752 35.457ZM81.5272 31.666C81.5272 30.732 81.3162 29.962 80.8942 29.356C80.4332 28.724 79.8162 28.408 79.0392 28.408C78.5122 28.408 78.0352 28.584 77.6072 28.931C77.1792 29.281 76.9002 29.738 76.7692 30.304C76.7042 30.568 76.6702 30.784 76.6702 30.954V32.554C76.6702 33.252 76.8842 33.841 77.3102 34.322C77.7382 34.802 78.2942 35.043 78.9802 35.043C79.7832 35.043 80.4082 34.733 80.8552 34.115C81.3032 33.496 81.5272 32.68 81.5272 31.666ZM103.088 28.508H100.738V33.167C100.738 34.352 101.152 34.944 101.982 34.944C102.363 34.944 102.679 34.911 102.929 34.845L102.988 36.464C102.568 36.621 102.015 36.7 101.33 36.7C100.488 36.7 99.8302 36.443 99.3552 35.93C98.8822 35.416 98.6442 34.554 98.6442 33.343V28.506H97.2442V26.906H98.6442V25.149L100.738 24.517V26.906H103.088V28.508ZM112.427 35.26C113.269 34.313 113.691 33.102 113.691 31.627C113.691 30.192 113.283 29.021 112.465 28.114C111.61 27.179 110.477 26.712 109.069 26.712C107.608 26.712 106.446 27.186 105.585 28.134C104.722 29.081 104.292 30.299 104.292 31.786C104.292 33.207 104.71 34.386 105.546 35.32C106.382 36.254 107.503 36.721 108.911 36.721C110.372 36.721 111.544 36.235 112.427 35.26ZM111.479 31.696C111.479 30.811 111.29 30.052 110.907 29.419C110.46 28.653 109.821 28.271 108.993 28.271C108.136 28.271 107.485 28.654 107.038 29.419C106.655 30.053 106.466 30.824 106.466 31.736C106.466 32.621 106.655 33.38 107.038 34.012C107.499 34.778 108.143 35.16 108.974 35.16C109.788 35.16 110.427 34.77 110.888 33.992C111.281 33.347 111.479 32.58 111.479 31.696ZM119.949 28.724C120.185 28.724 120.41 28.744 120.621 28.783V26.75C120.463 26.725 120.285 26.711 120.088 26.711C119.535 26.711 119.022 26.882 118.547 27.225C118.061 27.606 117.706 28.114 117.481 28.745H117.422L117.344 26.909H115.487C115.54 27.817 115.567 28.824 115.567 29.93L115.547 36.504H117.678V31.469C117.678 30.706 117.856 30.074 118.211 29.574C118.619 29.007 119.199 28.724 119.949 28.724ZM130.156 31.252C130.156 31.634 130.131 31.956 130.078 32.219H123.682C123.707 33.167 124.016 33.892 124.61 34.392C125.149 34.839 125.846 35.063 126.702 35.063C127.649 35.063 128.513 34.912 129.29 34.609L129.624 36.089C128.716 36.485 127.644 36.682 126.407 36.682C124.919 36.682 123.751 36.244 122.901 35.369C122.053 34.494 121.628 33.319 121.628 31.845C121.628 30.398 122.023 29.193 122.814 28.232C123.642 27.206 124.761 26.693 126.169 26.693C127.552 26.693 128.599 27.206 129.31 28.232C129.873 29.047 130.156 30.055 130.156 31.252ZM127.709 29.06C127.998 29.521 128.137 30.067 128.123 30.699V30.698H123.682C123.747 30.054 123.958 29.501 124.313 29.04C124.746 28.46 125.313 28.171 126.01 28.171C126.773 28.171 127.34 28.467 127.709 29.06Z" fill="white"/>
<path fill-rule="evenodd" clip-rule="evenodd" d="M79.0878 18.4327H78.0408V11.5557H79.0878V18.4327ZM55.9918 17.6667C56.6968 17.0717 57.0498 16.1857 57.0498 15.0087C57.0498 13.9607 56.7228 13.1557 56.0708 12.5927C55.4888 12.0947 54.6258 11.8457 53.4808 11.8457C52.8328 11.8457 52.2328 11.8917 51.6758 11.9817V18.4127C52.1028 18.4647 52.6128 18.4907 53.2088 18.4907C54.4108 18.4907 55.3388 18.2157 55.9918 17.6667ZM55.3388 13.2817C55.7428 13.6897 55.9448 14.2747 55.9448 15.0377C55.9448 15.8917 55.7248 16.5417 55.2888 16.9877C54.8528 17.4337 54.2338 17.6567 53.4318 17.6567C53.0888 17.6567 52.8528 17.6477 52.7238 17.6277V12.7387C52.9568 12.6927 53.2378 12.6707 53.5678 12.6707C54.3448 12.6707 54.9348 12.8747 55.3388 13.2817ZM62.9088 16.0367C62.9088 16.7617 62.7018 17.3557 62.2878 17.8217C61.8538 18.3007 61.2788 18.5397 60.5608 18.5397C59.8688 18.5397 59.3178 18.3107 58.9068 17.8507C58.4968 17.3917 58.2918 16.8127 58.2918 16.1147C58.2918 15.3847 58.5028 14.7857 58.9268 14.3207C59.3508 13.8557 59.9208 13.6227 60.6388 13.6227C61.3308 13.6227 61.8868 13.8517 62.3078 14.3107C62.7078 14.7567 62.9088 15.3327 62.9088 16.0367ZM61.5408 14.9517C61.7278 15.2627 61.8218 15.6357 61.8218 16.0707C61.8218 16.5057 61.7248 16.8817 61.5308 17.1987C61.3048 17.5817 60.9908 17.7727 60.5908 17.7727C60.1828 17.7727 59.8668 17.5847 59.6398 17.2087C59.4528 16.8977 59.3588 16.5247 59.3588 16.0897C59.3588 15.6417 59.4518 15.2627 59.6398 14.9517C59.8598 14.5757 60.1798 14.3877 60.6008 14.3877C61.0078 14.3877 61.3208 14.5757 61.5408 14.9517ZM70.7648 13.7187L70.7645 13.7197H69.7358L69.1638 15.9217C69.0218 16.4717 68.9148 16.9887 68.8438 17.4737H68.8148C68.7178 16.9757 68.5918 16.4587 68.4368 15.9217L67.7958 13.7197H66.9418L66.2728 15.9697C66.0908 16.5767 65.9618 17.0787 65.8838 17.4727H65.8648C65.7798 16.9947 65.6738 16.4897 65.5448 15.9597L65.0118 13.7187H63.9348L65.3218 18.4327H66.2928L66.9418 16.3857C67.1038 15.8877 67.2298 15.3807 67.3208 14.8627H67.3398C67.4378 15.3667 67.5638 15.8747 67.7188 16.3857L68.3298 18.4327H69.2898L70.7645 13.7197H70.7648V13.7187ZM75.1498 18.4327H76.1978V15.6087C76.1978 14.9167 76.0168 14.3957 75.6548 14.0467C75.3638 13.7617 74.9978 13.6197 74.5578 13.6197C74.2098 13.6197 73.8918 13.7087 73.6078 13.8847C73.3688 14.0357 73.1868 14.2247 73.0648 14.4537H73.0358L72.9868 13.7167H72.0658C72.0908 14.2027 72.1038 14.6517 72.1038 15.0657V18.4317H73.1518V15.6357C73.1518 15.3267 73.2498 15.0567 73.4428 14.8277C73.6378 14.5987 73.8888 14.4847 74.1998 14.4847C74.8338 14.4847 75.1498 14.9007 75.1498 15.7327V18.4327ZM84.6368 17.8217C85.0508 17.3557 85.2578 16.7617 85.2578 16.0367C85.2578 15.3327 85.0568 14.7567 84.6568 14.3107C84.2348 13.8517 83.6798 13.6227 82.9868 13.6227C82.2698 13.6227 81.6998 13.8557 81.2758 14.3207C80.8518 14.7857 80.6408 15.3847 80.6408 16.1147C80.6408 16.8127 80.8458 17.3917 81.2558 17.8507C81.6658 18.3107 82.2168 18.5397 82.9098 18.5397C83.6268 18.5397 84.2028 18.3007 84.6368 17.8217ZM84.1698 16.0707C84.1698 15.6357 84.0758 15.2627 83.8888 14.9517C83.6698 14.5757 83.3558 14.3877 82.9498 14.3877C82.5278 14.3877 82.2078 14.5757 81.9888 14.9517C81.8008 15.2627 81.7078 15.6417 81.7078 16.0897C81.7078 16.5247 81.8018 16.8977 81.9888 17.2087C82.2158 17.5847 82.5318 17.7727 82.9398 17.7727C83.3398 17.7727 83.6528 17.5817 83.8788 17.1987C84.0738 16.8817 84.1698 16.5057 84.1698 16.0707ZM89.3888 18.4327H90.3298C90.2848 18.1547 90.2618 17.7797 90.2618 17.3087V15.5727C90.2618 14.2727 89.6438 13.6227 88.4118 13.6227C87.7738 13.6227 87.2328 13.7587 86.7948 14.0297L87.0078 14.7177C87.3618 14.4857 87.7718 14.3687 88.2368 14.3687C88.8898 14.3687 89.2158 14.6787 89.2158 15.2997V15.3877C88.3428 15.3807 87.6648 15.5297 87.1828 15.8337C86.6998 16.1377 86.4598 16.5767 86.4598 17.1527C86.4598 17.5337 86.5828 17.8547 86.8288 18.1127C87.0998 18.3967 87.4598 18.5397 87.9048 18.5397C88.5008 18.5397 88.9598 18.3227 89.2818 17.8897H89.3108L89.3888 18.4327ZM89.2418 16.8127V16.0857C88.0858 16.0657 87.5078 16.3827 87.5078 17.0357C87.5078 17.2817 87.5738 17.4657 87.7088 17.5887C87.8438 17.7117 88.0158 17.7727 88.2208 17.7727C88.4508 17.7727 88.6658 17.6997 88.8618 17.5547C89.0588 17.4087 89.1798 17.2237 89.2248 16.9967C89.2358 16.9457 89.2418 16.8837 89.2418 16.8127ZM95.3548 18.4327H96.2848C96.2598 18.0447 96.2478 17.6217 96.2478 17.1627V11.5557H95.1988V14.2617H95.1788C94.9268 13.8347 94.4838 13.6217 93.8508 13.6217C93.2748 13.6217 92.7908 13.8417 92.3958 14.2817C91.9878 14.7537 91.7848 15.3717 91.7848 16.1347C91.7848 16.8457 91.9718 17.4247 92.3468 17.8707C92.7218 18.3167 93.1948 18.5397 93.7628 18.5397C94.4738 18.5397 94.9798 18.2517 95.2768 17.6757H95.3058L95.3548 18.4327ZM95.1988 16.4447V15.6587C95.1988 15.5227 95.1888 15.4127 95.1698 15.3287C95.1108 15.0767 94.9838 14.8647 94.7908 14.6937C94.5958 14.5227 94.3608 14.4367 94.0898 14.4367C93.6988 14.4367 93.3928 14.5917 93.1678 14.9027C92.9448 15.2137 92.8318 15.6107 92.8318 16.0957C92.8318 16.5617 92.9388 16.9397 93.1538 17.2307C93.3808 17.5407 93.6868 17.6957 94.0698 17.6957C94.4138 17.6957 94.6888 17.5667 94.8978 17.3077C95.0998 17.0687 95.1988 16.7807 95.1988 16.4447ZM104.627 17.8217C105.041 17.3557 105.248 16.7617 105.248 16.0367C105.248 15.3327 105.047 14.7567 104.647 14.3107C104.227 13.8517 103.67 13.6227 102.979 13.6227C102.26 13.6227 101.69 13.8557 101.266 14.3207C100.842 14.7857 100.631 15.3847 100.631 16.1147C100.631 16.8127 100.836 17.3917 101.246 17.8507C101.658 18.3107 102.209 18.5397 102.9 18.5397C103.619 18.5397 104.193 18.3007 104.627 17.8217ZM104.162 16.0707C104.162 15.6357 104.068 15.2627 103.881 14.9517C103.66 14.5757 103.348 14.3877 102.94 14.3877C102.52 14.3877 102.2 14.5757 101.979 14.9517C101.791 15.2627 101.698 15.6417 101.698 16.0897C101.698 16.5247 101.792 16.8977 101.979 17.2087C102.206 17.5847 102.522 17.7727 102.93 17.7727C103.33 17.7727 103.645 17.5817 103.871 17.1987C104.064 16.8817 104.162 16.5057 104.162 16.0707ZM109.836 18.4327H110.883V15.6087C110.883 14.9167 110.703 14.3957 110.34 14.0467C110.049 13.7617 109.683 13.6197 109.244 13.6197C108.895 13.6197 108.578 13.7087 108.293 13.8847C108.055 14.0357 107.873 14.2247 107.75 14.4537H107.721L107.672 13.7167H106.752C106.777 14.2027 106.789 14.6517 106.789 15.0657V18.4317H107.838V15.6357C107.838 15.3267 107.935 15.0567 108.129 14.8277C108.323 14.5987 108.574 14.4847 108.885 14.4847C109.52 14.4847 109.836 14.9007 109.836 15.7327V18.4327ZM117.935 14.5037H116.782V16.7937C116.782 17.3757 116.987 17.6667 117.393 17.6667C117.581 17.6667 117.737 17.6507 117.86 17.6177L117.887 18.4127C117.68 18.4907 117.408 18.5297 117.073 18.5297C116.659 18.5297 116.337 18.4037 116.104 18.1517C115.87 17.8997 115.754 17.4757 115.754 16.8807V14.5037H115.065V13.7187H115.754V12.8547L116.781 12.5447V13.7177H117.935V14.5037ZM122.435 18.4327H123.484V15.6297C123.484 14.9317 123.306 14.4037 122.951 14.0487C122.666 13.7637 122.307 13.6217 121.873 13.6217C121.26 13.6217 120.787 13.8797 120.457 14.3967H120.437V11.5557H119.39V18.4317H120.437V15.5967C120.437 15.4487 120.455 15.3227 120.486 15.2197C120.668 14.7297 121 14.4847 121.486 14.4847C122.119 14.4847 122.435 14.9077 122.435 15.7527V18.4327ZM129.207 15.8527C129.207 16.0407 129.193 16.1987 129.168 16.3277H126.025C126.039 16.7937 126.189 17.1487 126.48 17.3947C126.746 17.6147 127.089 17.7247 127.509 17.7247C127.974 17.7247 128.398 17.6507 128.78 17.5017L128.944 18.2297C128.497 18.4237 127.971 18.5207 127.362 18.5207C126.632 18.5207 126.057 18.3057 125.641 17.8757C125.223 17.4457 125.016 16.8687 125.016 16.1447C125.016 15.4337 125.209 14.8417 125.598 14.3697C126.004 13.8657 126.553 13.6137 127.246 13.6137C127.924 13.6137 128.439 13.8657 128.787 14.3697C129.068 14.7697 129.207 15.2647 129.207 15.8527ZM128.004 14.7767C128.146 15.0027 128.215 15.2707 128.207 15.5817H126.025C126.059 15.2647 126.162 14.9937 126.336 14.7667C126.549 14.4817 126.828 14.3397 127.17 14.3397C127.545 14.3397 127.822 14.4857 128.004 14.7767Z" fill="white"/>
<path d="M38.1281 24.7842C38.0991 21.5612 40.7671 19.9932 40.8891 19.9202C39.3781 17.7172 37.0361 17.4162 36.2131 17.3922C34.2461 17.1852 32.3381 18.5692 31.3361 18.5692C30.3141 18.5692 28.7711 17.4122 27.1081 17.4462C24.9681 17.4792 22.9661 18.7182 21.8681 20.6422C19.6021 24.5652 21.2921 30.3302 23.4631 33.5012C24.5491 35.0542 25.8181 36.7882 27.4791 36.7272C29.1041 36.6602 29.7111 35.6912 31.6721 35.6912C33.6151 35.6912 34.1851 36.7272 35.8791 36.6882C37.6231 36.6602 38.7211 35.1282 39.7691 33.5612C41.0241 31.7812 41.5281 30.0282 41.5481 29.9382C41.5071 29.9242 38.1611 28.6472 38.1281 24.7842Z" fill="white"/>
<path d="M34.928 15.3058C35.802 14.2128 36.4 12.7258 36.234 11.2168C34.969 11.2728 33.387 12.0918 32.476 13.1608C31.67 14.1028 30.95 15.6468 31.136 17.0988C32.557 17.2048 34.016 16.3818 34.928 15.3058Z" fill="white"/>
</g>
<defs>
<clipPath id="clip0_2848_21647">
<rect width="111" height="30" fill="white" transform="translate(20 11)"/>
</clipPath>
</defs>
</svg>
