<svg width="147" height="50" viewBox="0 0 147 50" fill="none" xmlns="http://www.w3.org/2000/svg">
<mask id="mask0_2848_21708" style="mask-type:luminance" maskUnits="userSpaceOnUse" x="0" y="0" width="147" height="50">
<rect width="147" height="50" rx="4" fill="white"/>
</mask>
<g mask="url(#mask0_2848_21708)">
<rect width="147" height="50" rx="12" fill="#090D20"/>
</g>
<g clip-path="url(#clip0_2848_21708)">
<path fill-rule="evenodd" clip-rule="evenodd" d="M113.936 34.9999H115.801V22.4989H113.936V34.9999ZM130.743 27.0019L128.604 32.4219H128.54L126.32 27.0019H124.31L127.64 34.5769L125.741 38.7909H127.687L132.818 27.0019H130.743ZM120.16 33.5799C119.55 33.5799 118.697 33.2739 118.697 32.5179C118.697 31.5539 119.759 31.1829 120.676 31.1829C121.495 31.1829 121.882 31.3609 122.38 31.6009C122.235 32.7599 121.238 33.5799 120.16 33.5799ZM120.386 26.7279C119.035 26.7279 117.636 27.3239 117.057 28.6419L118.713 29.3339C119.067 28.6419 119.726 28.4169 120.418 28.4169C121.383 28.4169 122.364 28.9959 122.38 30.0249V30.1539C122.042 29.9609 121.318 29.6719 120.434 29.6719C118.648 29.6719 116.831 30.6529 116.831 32.4859C116.831 34.1589 118.295 35.2369 119.935 35.2369C121.189 35.2369 121.882 34.6739 122.315 34.0139H122.38V34.9789H124.182V30.1859C124.182 27.9669 122.524 26.7279 120.386 26.7279ZM108.854 28.5239H106.2V24.2389H108.854C110.249 24.2389 111.041 25.3929 111.041 26.3809C111.041 27.3499 110.249 28.5239 108.854 28.5239ZM108.806 22.4979H104.335V34.9999H106.2V30.2639H108.806C110.874 30.2639 112.907 28.7659 112.907 26.3809C112.907 23.9959 110.874 22.4979 108.806 22.4979ZM84.425 33.5819C83.136 33.5819 82.057 32.5029 82.057 31.0209C82.057 29.5219 83.136 28.4269 84.425 28.4269C85.697 28.4269 86.696 29.5219 86.696 31.0209C86.696 32.5029 85.697 33.5819 84.425 33.5819ZM86.567 27.7019H86.503C86.084 27.2029 85.278 26.7509 84.264 26.7509C82.137 26.7509 80.187 28.6199 80.187 31.0209C80.187 33.4049 82.137 35.2579 84.264 35.2579C85.278 35.2579 86.084 34.8069 86.503 34.2909H86.567V34.9029C86.567 36.5309 85.697 37.3999 84.296 37.3999C83.152 37.3999 82.443 36.5789 82.153 35.8859L80.526 36.5629C80.993 37.6899 82.233 39.0759 84.296 39.0759C86.487 39.0759 88.34 37.7869 88.34 34.6449V27.0089H86.567V27.7019ZM89.629 34.9999H91.497V22.4989H89.629V34.9999ZM94.252 30.8759C94.204 29.2319 95.525 28.3949 96.475 28.3949C97.217 28.3949 97.845 28.7659 98.055 29.2969L94.252 30.8759ZM100.052 29.4579C99.697 28.5079 98.618 26.7509 96.411 26.7509C94.22 26.7509 92.399 28.4749 92.399 31.0049C92.399 33.3889 94.204 35.2579 96.62 35.2579C98.569 35.2579 99.697 34.0659 100.165 33.3729L98.715 32.4059C98.231 33.1149 97.571 33.5819 96.62 33.5819C95.67 33.5819 94.993 33.1469 94.559 32.2929L100.245 29.9409L100.052 29.4579ZM54.744 28.0569V29.8609H59.061C58.933 30.8759 58.594 31.6169 58.079 32.1319C57.45 32.7609 56.467 33.4539 54.744 33.4539C52.085 33.4539 50.007 31.3109 50.007 28.6529C50.007 25.9949 52.085 23.8509 54.744 23.8509C56.178 23.8509 57.225 24.4149 57.998 25.1409L59.271 23.8679C58.191 22.8369 56.758 22.0469 54.744 22.0469C51.102 22.0469 48.041 25.0119 48.041 28.6529C48.041 32.2929 51.102 35.2579 54.744 35.2579C56.709 35.2579 58.191 34.6129 59.351 33.4049C60.543 32.2129 60.914 30.5369 60.914 29.1839C60.914 28.7659 60.882 28.3789 60.817 28.0569H54.744ZM65.822 33.5819C64.534 33.5819 63.422 32.5189 63.422 31.0049C63.422 29.4739 64.534 28.4269 65.822 28.4269C67.111 28.4269 68.223 29.4739 68.223 31.0049C68.223 32.5189 67.111 33.5819 65.822 33.5819ZM65.822 26.7509C63.47 26.7509 61.553 28.5399 61.553 31.0049C61.553 33.4539 63.47 35.2579 65.822 35.2579C68.175 35.2579 70.092 33.4539 70.092 31.0049C70.092 28.5399 68.175 26.7509 65.822 26.7509ZM75.136 33.5819C73.847 33.5819 72.735 32.5189 72.735 31.0049C72.735 29.4739 73.847 28.4269 75.136 28.4269C76.425 28.4269 77.536 29.4739 77.536 31.0049C77.536 32.5189 76.425 33.5819 75.136 33.5819ZM75.136 26.7509C72.784 26.7509 70.867 28.5399 70.867 31.0049C70.867 33.4539 72.784 35.2579 75.136 35.2579C77.488 35.2579 79.405 33.4539 79.405 31.0049C79.405 28.5399 77.488 26.7509 75.136 26.7509Z" fill="white"/>
<path fill-rule="evenodd" clip-rule="evenodd" d="M53.6735 17.2462C54.1705 16.7482 54.4185 16.0812 54.4185 15.2432C54.4185 15.0972 54.4045 14.9472 54.3765 14.7902H51.4695V15.5112H53.6475C53.6035 16.0312 53.4355 16.4352 53.1455 16.7262C52.6975 17.1732 52.1395 17.3962 51.4695 17.3962C50.8375 17.3962 50.2915 17.1752 49.8305 16.7302C49.3695 16.2862 49.1395 15.7092 49.1395 15.0002C49.1395 14.2902 49.3695 13.7142 49.8305 13.2692C50.2915 12.8252 50.8375 12.6032 51.4695 12.6032C52.1675 12.6032 52.7145 12.8412 53.1115 13.3152L53.6395 12.7872C53.4045 12.5082 53.0915 12.2852 52.7005 12.1172C52.3105 11.9502 51.8985 11.8662 51.4695 11.8662C50.6035 11.8662 49.8665 12.1662 49.2615 12.7662C48.6545 13.3672 48.3525 14.1112 48.3525 15.0002C48.3525 15.8882 48.6545 16.6332 49.2615 17.2332C49.8665 17.8342 50.6035 18.1342 51.4695 18.1342C52.3735 18.1342 53.1085 17.8382 53.6735 17.2462ZM56.2958 12.7373H59.0278V12.0003H55.5248V18.0003H59.0278V17.2623H56.2958V15.3603H58.7588V14.6393H56.2958V12.7373ZM62.2788 18H61.5078V12.737H59.8318V12H63.9548V12.737H62.2788V18ZM67.7091 18.0001H66.9381V12.0001H67.7091V18.0001ZM71.1284 18H70.3574V12.737H68.6814V12H72.8044V12.737H71.1284V18ZM78.4093 18.1342C79.2863 18.1342 80.0193 17.8312 80.6093 17.2242C81.1983 16.6182 81.4933 15.8772 81.4933 15.0002C81.4933 14.1282 81.1973 13.3882 80.6053 12.7792C80.0123 12.1702 79.2813 11.8662 78.4093 11.8662C77.5323 11.8662 76.7993 12.1692 76.2103 12.7752C75.6203 13.3812 75.3263 14.1232 75.3263 15.0002C75.3263 15.8772 75.6203 16.6182 76.2103 17.2242C76.7993 17.8312 77.5323 18.1342 78.4093 18.1342ZM76.7793 16.7222C77.2233 17.1722 77.7663 17.3962 78.4093 17.3962C79.0513 17.3962 79.5953 17.1722 80.0393 16.7222C80.4833 16.2722 80.7063 15.6982 80.7063 15.0002C80.7063 14.3022 80.4833 13.7272 80.0393 13.2782C79.5953 12.8282 79.0513 12.6032 78.4093 12.6032C77.7663 12.6032 77.2233 12.8282 76.7793 13.2782C76.3363 13.7272 76.1133 14.3022 76.1133 15.0002C76.1133 15.6982 76.3363 16.2722 76.7793 16.7222ZM82.5752 12V18H83.3462V14.263L83.3122 13.106H83.3462L86.3962 18H87.2012V12H86.4292V15.511L86.4632 16.667H86.4292L83.5132 12H82.5752Z" fill="white"/>
<g clip-path="url(#clip1_2848_21708)">
<path d="M32.9632 28.6674C35.8793 27.1063 38.0899 25.9167 38.2804 25.8242C38.89 25.5082 39.5195 24.6717 38.2804 24.0219C37.8804 23.8176 35.7266 22.665 32.9632 21.1787L29.1323 24.9508L32.9632 28.6673V28.6674Z" fill="#FFD900"/>
<path d="M29.1324 24.9512L16.9346 36.9374C17.2209 36.9744 17.5441 36.9004 17.9252 36.6961C18.7253 36.2691 27.207 31.753 32.9632 28.6686L29.1324 24.9512Z" fill="#F43249"/>
<path d="M29.1323 24.9513L32.9631 21.1977C32.9631 21.1977 18.7831 13.6525 17.9251 13.2071C17.6019 13.0205 17.2397 12.965 16.9155 13.0205L29.1323 24.9513Z" fill="#00EE76"/>
<path d="M29.1326 24.9513L16.9158 13.0205C16.42 13.1323 16.001 13.5594 16.001 14.4328V35.5252C16.001 36.3247 16.3252 36.9005 16.9347 36.956L29.1326 24.9513Z" fill="#00D3FF"/>
</g>
</g>
<defs>
<clipPath id="clip0_2848_21708">
<rect width="117" height="29" fill="white" transform="translate(16 11)"/>
</clipPath>
<clipPath id="clip1_2848_21708">
<rect width="23" height="24" fill="white" transform="translate(16 13)"/>
</clipPath>
</defs>
</svg>
