<svg width="45" height="28" viewBox="0 0 45 28" fill="none" xmlns="http://www.w3.org/2000/svg">
<path d="M39.6161 0H4.40179C1.97075 0 0 1.97799 0 4.41797V22.7695C0 25.2095 1.97075 27.1875 4.40179 27.1875H39.6161C42.0471 27.1875 44.0179 25.2095 44.0179 22.7695V4.41797C44.0179 1.97799 42.0471 0 39.6161 0Z" fill="#055E7C"/>
<path fill-rule="evenodd" clip-rule="evenodd" d="M36.5288 11.7074C36.2541 11.7074 36.0049 11.8161 35.8222 11.9923L31.7555 15.2452L30.9851 14.6376L27.6696 12.023L27.6105 11.9734C27.5602 11.932 27.5534 11.9261 27.472 11.8682C27.2939 11.737 27.0939 11.6519 26.8637 11.6519C26.3267 11.6519 25.8916 12.0951 25.8916 12.6424C25.8916 12.9473 26.0269 13.2204 26.2393 13.4024H26.2395L26.2408 13.4036C26.25 13.4107 26.2594 13.419 26.2686 13.4261L30.0445 16.5017L30.7076 17.0418L30.71 19.7321L30.7104 19.7368C30.7153 20.2782 31.1591 20.7144 31.7058 20.7144C32.2457 20.7144 32.6848 20.2888 32.7007 19.7581L32.7027 19.7546V17.0442L36.7263 13.8575L36.7716 13.8197L36.8894 13.7216C36.9144 13.7015 36.9472 13.6766 36.9699 13.6542L37.1285 13.523C37.369 13.3161 37.5434 13.0454 37.5434 12.7121C37.5434 12.1578 37.0892 11.7074 36.5288 11.7074Z" fill="#00BCD4"/>
<path fill-rule="evenodd" clip-rule="evenodd" d="M27.0069 19.1652L22.6502 12.0698C22.4836 11.8172 22.2069 11.6519 21.8985 11.6519C21.391 11.6519 20.9797 12.0982 20.9797 12.6484C20.9797 12.8704 21.0466 13.0759 21.1596 13.2412L23.2217 16.4624L19.2999 16.4565C19.069 16.4624 18.7049 16.6206 18.4413 16.9748L17.0604 19.1038C16.9167 19.275 16.8291 19.5017 16.8291 19.752C16.8291 20.2834 17.2261 20.7144 17.7157 20.7144C18.009 20.7144 18.2689 20.5597 18.4304 20.3212L18.4418 20.3141L19.6867 18.5181H24.5331L25.5348 20.2196C25.6846 20.5136 25.9738 20.7144 26.3061 20.7144C26.7921 20.7144 27.1862 20.2869 27.1862 19.7591C27.1862 19.5596 27.1301 19.3753 27.034 19.2218C27.0259 19.2018 27.017 19.1829 27.0069 19.1652Z" fill="#00BCD4"/>
<path fill-rule="evenodd" clip-rule="evenodd" d="M15.23 11.6519C15.2228 11.6519 15.2156 11.6519 15.2086 11.6519H7.52126C6.94325 11.6519 6.47461 12.1005 6.47461 12.6534C6.47461 12.8547 6.53728 13.0417 6.64418 13.198C6.78966 13.3945 6.99425 13.5366 7.2545 13.6206C7.33978 13.6419 7.42898 13.6538 7.52126 13.6538H12.3613H15.1069H15.2759H15.2922C15.3197 13.6538 15.347 13.655 15.3739 13.6585C15.8007 13.6999 16.1336 14.0445 16.1336 14.4635C16.1336 14.9075 15.7606 15.2674 15.2979 15.2733L15.2278 15.2745H12.3578H7.55063H7.47015C6.84876 15.2745 6.47461 15.7362 6.47461 16.263V19.7235C6.47461 20.2704 6.93859 20.7144 7.51057 20.7144C8.06892 20.7144 8.52405 20.2893 8.54469 19.7602V19.6856V17.2871H15.2317L15.2607 17.2859C15.2616 17.2859 15.2622 17.2847 15.2629 17.2847C16.8518 17.2433 18.1264 15.999 18.1264 14.4695C18.1264 12.9304 16.834 11.6779 15.23 11.6519Z" fill="#00BCD4"/>
<path fill-rule="evenodd" clip-rule="evenodd" d="M7.84355 7.60948H8.97611L8.4112 5.95629L7.84355 7.60948ZM8.89139 5.17871L10.3585 9.06264H9.47985L9.20298 8.26386H7.62301L7.3573 9.06264H6.47461L7.92385 5.17871H8.89139Z" fill="white"/>
<path fill-rule="evenodd" clip-rule="evenodd" d="M13.0446 8.36057C13.4002 8.36057 13.5686 8.21352 13.5686 7.85851C13.5686 7.47965 13.4002 7.34321 13.0409 7.34321H12.2776V8.36057H13.0446ZM13.0189 6.67956C13.3298 6.67956 13.4797 6.55636 13.4797 6.25699C13.4797 5.95629 13.3268 5.85428 13.014 5.85428H12.2776V6.67956H13.0189ZM11.6543 5.17871H13.1417C13.7952 5.17871 14.1327 5.52974 14.1327 6.16029C14.1327 6.54974 14.0106 6.81468 13.756 6.96172C14.0851 7.12333 14.2436 7.42535 14.2436 7.88104C14.2436 8.6202 13.8393 9.06264 13.094 9.06264H11.6543V5.17871Z" fill="white"/>
<path fill-rule="evenodd" clip-rule="evenodd" d="M16.9055 7.60948H18.0385L17.4727 5.95629L16.9055 7.60948ZM17.9529 5.17871L19.421 9.06264H18.5433L18.265 8.26386H16.6849L16.4187 9.06264H15.5371L16.9849 5.17871H17.9529Z" fill="white"/>
</svg>
