<svg width="47" height="32" viewBox="0 0 47 32" fill="none" xmlns="http://www.w3.org/2000/svg">
    <rect width="47" height="32" rx="4" fill="black"/>
    <path fill-rule="evenodd" clip-rule="evenodd" d="M23.8357 22.876C22.2355 24.247 20.1599 25.0747 17.8919 25.0747C12.8311 25.0747 8.72852 20.9539 8.72852 15.8707C8.72852 10.7875 12.8311 6.66675 17.8919 6.66675C20.1599 6.66675 22.2355 7.49442 23.8357 8.86545C25.4358 7.49442 27.5114 6.66675 29.7794 6.66675C34.8402 6.66675 38.9428 10.7875 38.9428 15.8707C38.9428 20.9539 34.8402 25.0747 29.7794 25.0747C27.5114 25.0747 25.4358 24.247 23.8357 22.876Z" fill="#ED0006"/>
    <path fill-rule="evenodd" clip-rule="evenodd" d="M23.8359 22.876C25.8062 21.1878 27.0555 18.6758 27.0555 15.8707C27.0555 13.0656 25.8062 10.5536 23.8359 8.86545C25.436 7.49442 27.5117 6.66675 29.7797 6.66675C34.8405 6.66675 38.9431 10.7875 38.9431 15.8707C38.9431 20.9539 34.8405 25.0747 29.7797 25.0747C27.5117 25.0747 25.436 24.247 23.8359 22.876Z" fill="#F9A000"/>
    <path fill-rule="evenodd" clip-rule="evenodd" d="M23.8357 8.86548C25.8059 10.5537 27.0552 13.0656 27.0552 15.8707C27.0552 18.6758 25.8059 21.1878 23.8357 22.876C21.8655 21.1878 20.6162 18.6758 20.6162 15.8707C20.6162 13.0656 21.8655 10.5537 23.8357 8.86548Z" fill="#FF5E00"/>
    </svg>
    


    