<svg width="47" height="32" viewBox="0 0 47 32" fill="none" xmlns="http://www.w3.org/2000/svg">
    <rect width="47" height="32" rx="4" fill="#00579F"/>
    <path d="M20.1077 21.4438H17.4502L19.1124 11.239H21.7697L20.1077 21.4438Z" fill="white"/>
    <path d="M29.7403 11.4884C29.2161 11.2819 28.3847 11.054 27.3567 11.054C24.7324 11.054 22.8843 12.4435 22.873 14.4301C22.8512 15.8958 24.1961 16.7099 25.2021 17.1986C26.2302 17.698 26.5797 18.0239 26.5797 18.469C26.5692 19.1527 25.7489 19.4678 24.9838 19.4678C23.9228 19.4678 23.3543 19.3054 22.4904 18.925L22.1404 18.762L21.7686 21.0527C22.3918 21.3347 23.5402 21.5849 24.7324 21.5958C27.5208 21.5958 29.3362 20.2278 29.3577 18.1108C29.3683 16.9491 28.6581 16.059 27.127 15.3316C26.1975 14.8647 25.6283 14.5498 25.6283 14.0721C25.6392 13.6378 26.1097 13.1929 27.159 13.1929C28.0229 13.1711 28.6576 13.3773 29.1385 13.5837L29.3789 13.692L29.7403 11.4884Z" fill="white"/>
    <path d="M33.2737 17.8286C33.4925 17.2424 34.3347 14.9734 34.3347 14.9734C34.3236 14.9952 34.5531 14.3763 34.6843 13.9964L34.87 14.8757C34.87 14.8757 35.3733 17.3184 35.4826 17.8286C35.0672 17.8286 33.7986 17.8286 33.2737 17.8286ZM36.554 11.239H34.4984C33.8646 11.239 33.383 11.4234 33.1095 12.0857L29.1621 21.4437H31.9505C31.9505 21.4437 32.4096 20.1842 32.5083 19.9129C32.8142 19.9129 35.5267 19.9129 35.9203 19.9129C35.9966 20.2712 36.2374 21.4437 36.2374 21.4437H38.6979L36.554 11.239Z" fill="white"/>
    <path d="M15.231 11.239L12.6285 18.1977L12.3441 16.7864C11.8629 15.1579 10.3539 13.3887 8.66992 12.5089L11.0538 21.433H13.864L18.0411 11.239H15.231Z" fill="white"/>
    <path d="M10.211 11.239H5.93534L5.8916 11.4452C9.22687 12.292 11.4357 14.3333 12.3433 16.7868L11.4138 12.0968C11.2608 11.4451 10.7905 11.2605 10.211 11.239Z" fill="#FAA61A"/>
    </svg>
    
